<svg xmlns="http://www.w3.org/2000/svg" viewBox="0 0 354 174.09"><defs><style>.cls-1{fill:#666e8d;}</style></defs><g id="Layer_2" data-name="Layer 2"><g id="Camada_1" data-name="Camada 1"><path class="cls-1" d="M105.93,158.3a1.16,1.16,0,0,1-.4.2.21.21,0,0,0-.16.08,1.61,1.61,0,0,0-1.15.87,4.31,4.31,0,0,0,1.7-.55c4.46-1.46,8.8-3.25,13.17-5,7.1-2.76,14.15-5.65,21.19-8.56,8.73-3.59,17.42-7.25,26.06-11Q179,128.75,191.66,123q16.59-7.49,32.49-16.31c13.32-7.38,26.5-15,39.35-23.21S289.2,67,301.58,58a154,154,0,0,0,14.08-11.14,50.19,50.19,0,0,0,10.64-13.1c1.51-2.83,2.66-5.84,4-8.75a43.55,43.55,0,0,0,3.74-17.88,17.12,17.12,0,0,0-.51-5.28c-.21-.72-.24-1.62-1.17-1.82s-1.5.51-2,1.18c-1.05,1.49-2.11,3-3.09,4.51a80.44,80.44,0,0,1-20.74,22.07C298,34,289.5,40.31,281,46.56c-9.74,7.14-19.42,14.35-29.25,21.37C239.94,76.33,228,84.49,216,92.61q-14,9.49-28,18.9c-7.19,4.85-14.45,9.59-21.82,14.15-8.16,5-16.51,9.72-25,14.11-7.75,4-15.46,8.07-23.18,12.13Q112,155.08,105.93,158.3Z"/><path class="cls-1" d="M353.83,37.48a8,8,0,0,0-.56-2.22c-.67-1.37-1.19-1.47-2.41-.53a25.26,25.26,0,0,0-4.07,4.45,61.31,61.31,0,0,1-13,12.38c-4,2.77-8.2,5.13-12.35,7.62-8.05,4.84-16.2,9.5-24.37,14.14-7.41,4.22-14.8,8.48-22.25,12.63q-15.06,8.4-30.2,16.65-13.24,7.23-26.58,14.31Q207.56,122.51,197,128c-6.17,3.18-12.38,6.3-18.67,9.24s-12.58,5.67-19,8.27q-11.64,4.77-23.25,9.61l-12.6,5.24a.28.28,0,0,0-.34.18.3.3,0,0,0-.22.08,2.79,2.79,0,0,0-1.74.86,4.6,4.6,0,0,0,2.35-.56.33.33,0,0,0,.24-.05,1,1,0,0,0,.91-.24,5.88,5.88,0,0,0,.7-.16c4.07-1.26,8.15-2.5,12.21-3.79q11.17-3.53,22.32-7.09c4.29-1.37,8.55-2.83,12.84-4.21,6-1.93,12-4,18-6.1,6.55-2.31,13.07-4.71,19.61-7.07q12.16-4.4,24.14-9.28c8.33-3.43,16.56-7.08,24.74-10.86q15.85-7.32,31.42-15.22c9.07-4.57,18.05-9.31,26.91-14.29,5.47-3.08,10.92-6.19,16.12-9.72a45.29,45.29,0,0,0,14.69-15.49c1.87-3.4,3.88-6.72,4.72-10.59C353.71,43.68,354.31,40.63,353.83,37.48Z"/><path class="cls-1" d="M342.63,77.59a25.41,25.41,0,0,0-2.73,2.33A63,63,0,0,1,326.14,90c-7.46,3.81-15.16,7.14-22.78,10.62s-15,6.74-22.57,10.08c-6.57,2.91-13.13,5.82-19.73,8.67s-13,5.56-19.56,8.31q-10.27,4.32-20.56,8.58c-7.61,3.15-15.22,6.3-22.85,9.39-5.55,2.25-11.15,4.38-16.84,6.24-7,2.29-13.91,4.61-20.88,6.88-4.6,1.5-9.22,2.94-13.82,4.43-2.23.73-4.44,1.51-6.66,2.27a5.36,5.36,0,0,0-2,.57c-.53.13-1.15.1-1.57.88a9.84,9.84,0,0,0,2.48-.57,4.68,4.68,0,0,0,1.74-.56c.28,0,.57-.07.85-.14q6.84-1.64,13.69-3.29,7.4-1.8,14.78-3.65c3.81-1,7.61-2,11.41-3,6.34-1.69,12.68-3.36,19-5.09,4.58-1.24,9.13-2.56,13.7-3.82,5.69-1.57,11.35-3.2,17-5s10.94-3.53,16.38-5.38c5.8-2,11.56-4.08,17.32-6.18,5.53-2,11-4.15,16.54-6.21q7.68-2.86,15.23-6c4.1-1.73,8.18-3.52,12.29-5.25,6.09-2.57,12.17-5.16,18-8.2a52.81,52.81,0,0,0,9.08-5.77c2.51-2.06,4.29-4.75,6.27-7.27a19.12,19.12,0,0,0,3.59-8.06,10,10,0,0,0-.1-4.85C345,76.82,344.18,76.52,342.63,77.59Z"/><path class="cls-1" d="M4.48,59.66a125.91,125.91,0,0,0,8.79,13.81,63.22,63.22,0,0,0,7.55,9A139.54,139.54,0,0,0,45.2,100.67c7.39,4.46,15,8.56,22.69,12.4,5.79,2.87,11.58,5.75,17.41,8.54q10.58,5.06,21.5,9.26a169.31,169.31,0,0,0,18,6,17.23,17.23,0,0,0,4.69.64c2.15-.05,2.69-.47,3.32-2.46a1.15,1.15,0,0,0-.4-1.4,8.72,8.72,0,0,0-1-.6c-5.23-2.82-10.45-5.66-15.68-8.47Q100,116.13,84.22,107.67c-4.34-2.34-8.69-4.68-12.88-7.29C61.83,94.45,52.57,88.13,43.46,81.6a180.21,180.21,0,0,1-28.59-25,59.45,59.45,0,0,1-9.75-13.8c-1.33-2.71-2.49-5.5-3.73-8.25a2,2,0,0,0-1-1.25A9.91,9.91,0,0,0,0,37.14a95.84,95.84,0,0,0,1.16,12.3A32.46,32.46,0,0,0,4.48,59.66Z"/><path class="cls-1" d="M110.12,146.78a11.88,11.88,0,0,0,6.19-2.84c1.11-.93,1-1.87-.2-2.66a8.36,8.36,0,0,0-2.35-1.08c-2.86-.78-5.72-1.57-8.59-2.33-3.61-1-7.26-1.77-10.85-2.81a131.69,131.69,0,0,1-12.68-4.66c-11.55-4.67-23-9.6-34-15.35a84.19,84.19,0,0,1-14.38-8.93c-4.06-3.29-8-6.71-12-10.09A78.8,78.8,0,0,1,10.79,86c-1.07-1.29-2.21-2.52-3.32-3.78a2.64,2.64,0,0,0-1.24-.94,5.56,5.56,0,0,0,.34,2.29,109.21,109.21,0,0,0,5.51,13.88,66.26,66.26,0,0,0,9.49,15c5.19,5.95,11.41,10.64,17.93,15a89.56,89.56,0,0,0,18.2,9.12,173.28,173.28,0,0,0,20.87,6.4c5.92,1.44,11.92,2.48,17.94,3.43A47.76,47.76,0,0,0,110.12,146.78Z"/><path class="cls-1" d="M311.85,121.55a26.15,26.15,0,0,0-3.72,2.17,33.35,33.35,0,0,1-5.33,3.1c-3.45,1.57-7,2.8-10.61,4q-8.08,2.78-16.22,5.42-9.56,3.1-19.17,6.1-10.91,3.4-21.83,6.75-10.23,3.15-20.48,6.24c-6,1.8-11.92,3.62-17.93,5.24-9.62,2.59-19.3,5-29,7.19-3.27.75-6.53,1.52-9.79,2.28a13,13,0,0,0-4.05,1.1,17.71,17.71,0,0,0,4.46-.68h.08l.34-.09a8.1,8.1,0,0,0,.86-.06c6.09-1.08,12.18-2.11,18.26-3.26,7.67-1.45,15.32-3,23-4.48q12.78-2.43,25.46-5.33c5.61-1.28,11.19-2.64,16.77-4q14.85-3.72,29.52-8.11c8.4-2.5,16.79-5.05,25.05-8a39.21,39.21,0,0,0,9.12-4.18,21.43,21.43,0,0,0,6.35-6.16,5.58,5.58,0,0,0,.86-4.26C313.56,121.28,313,121,311.85,121.55Z"/><path class="cls-1" d="M38.55,148.25q3.83,2.92,7.84,5.59a33,33,0,0,0,7.3,3.65,40.65,40.65,0,0,0,9.56,1.92,42.07,42.07,0,0,0,7.61.18,104.32,104.32,0,0,0,22.46-4.67,14.41,14.41,0,0,0,2-.83c.38-.18.85-.35.85-.87s-.48-.65-.89-.78a12.41,12.41,0,0,0-1.66-.46c-2.47-.34-4.94-.67-7.42-.94a117.19,117.19,0,0,1-16.83-3c-4.45-1.13-8.88-2.37-13.29-3.67s-8.84-2.53-13.17-4.09A37.53,37.53,0,0,1,31,133.79c-1.82-1.55-3.63-3.12-5.48-4.64-.46-.38-.85-.91-1.57-1a2.59,2.59,0,0,0,.5,1.92,88.35,88.35,0,0,0,7.42,11.27A35.4,35.4,0,0,0,38.55,148.25Z"/><path class="cls-1" d="M40.37,160.11c-1.38-.06-2.78,0-4.17,0-.8,0-1.09.33-1.22,1-.18,1-.42,2.06-.64,3.09-.49,2.39-1,4.78-1.53,7.4h5.57a9.72,9.72,0,0,0,1.43-.07A4.78,4.78,0,0,0,43,170a7.47,7.47,0,0,0,1.83-5.73A4.2,4.2,0,0,0,40.37,160.11Zm.82,5a4.87,4.87,0,0,1-.66,2.51A2.43,2.43,0,0,1,37.7,169c-.53-.06-.64-.32-.55-.76.33-1.64.66-3.28,1-4.92a.72.72,0,0,1,.79-.65C40.33,162.68,41.38,162.91,41.19,165.07Z"/><path class="cls-1" d="M16.66,162.25c-.46-2.62,0-2.09-2.52-2.16a3.09,3.09,0,0,1-.43,0,1.62,1.62,0,0,0-1.81,1c-1.27,2.37-2.66,4.66-3.95,7a24.9,24.9,0,0,0-1.78,3.32,3.31,3.31,0,0,0,1.46.17c.53,0,1.06,0,1.59,0a.88.88,0,0,0,1-.66c.27-1.13,1-1.35,2.05-1.22a7,7,0,0,0,1.29,0c.57,0,.84.14.94.76.17,1.1.23,1.1,1.36,1.12h1c1.32,0,1.3,0,1.1-1.28C17.51,167.65,17.14,164.94,16.66,162.25Zm-3,5a2.91,2.91,0,0,1-1.64-.19c.35-.77.69-1.54,1.06-2.3.16-.33.24-.72.68-.95a10.91,10.91,0,0,1,.41,2.93C14.26,167.12,14,167.25,13.69,167.25Z"/><path class="cls-1" d="M93.79,162.45a4.52,4.52,0,0,0-4.62-2.52c-.48,0-1,0-1.44.1a5.06,5.06,0,0,0-1,.3c-3.24,1.17-4.76,5-4,8.17a4,4,0,0,0,2.68,3,6.74,6.74,0,0,0,5.44-.34,5.21,5.21,0,0,0,2.52-2.84c.09-.25.28-.62-.11-.72a10.23,10.23,0,0,0-2.7-.38c-.69,0-.64.74-1,1.11a2.12,2.12,0,0,1-2.3.76,1.89,1.89,0,0,1-1.18-2,6.32,6.32,0,0,1,1-3.25,2.89,2.89,0,0,1,1.45-1.13,1.46,1.46,0,0,1,2.05.74c.28.87.76.82,1.41.71a11.39,11.39,0,0,1,1.43-.17c.61,0,.71-.38.59-.88A4.22,4.22,0,0,0,93.79,162.45Z"/><path class="cls-1" d="M74.49,165.51a5.54,5.54,0,0,0-1.86.84,2.18,2.18,0,0,0-3-.5.75.75,0,0,1-.9,0c-.41-.28-.93-.11-1.4-.13a.62.62,0,0,0-.7.56c-.34,1.6-.7,3.18-1,4.78a.42.42,0,0,0,.29.55,1.54,1.54,0,0,0,2.25-1.28,7.29,7.29,0,0,1,.73-2.46c.21-.33.51-.64.94-.49s.31.61.24,1a18,18,0,0,0-.54,3.17c2.21.27,2.21.27,2.61-1.76.07-.33.13-.66.21-1a2.5,2.5,0,0,1,.57-1.15.7.7,0,0,1,.76-.27c.35.12.33.44.29.72q-.21,1.2-.45,2.4c-.22,1.15-.22,1.15.86,1.17s1.18,0,1.45-1.09.49-2.05.63-3.09C76.65,166.1,75.84,165.36,74.49,165.51Z"/><path class="cls-1" d="M122.68,165.8a.77.77,0,0,1-1,.06,2.41,2.41,0,0,0-3.21.63,3.76,3.76,0,0,0-.82,3.23,1.85,1.85,0,0,0,2.24,1.67c.4-.06.78-.19,1.22-.29,0,.66-.17,1.17-.7,1.44s-.75-.21-1.12-.37a3.28,3.28,0,0,0-2.11-.25,2,2,0,0,0,1.72,2,5.32,5.32,0,0,0,2.14,0,2.57,2.57,0,0,0,2.29-2.07,18.77,18.77,0,0,0,.59-2.52,30,30,0,0,0,.66-3.7C123.88,165.71,123.22,165.47,122.68,165.8Zm-2.08,4c-.61,0-.76-.48-.75-1,0-.87.63-1.65,1.26-1.64s.74.35.71,1C121.78,169.12,121.26,169.84,120.6,169.79Z"/><path class="cls-1" d="M63.84,165.73a6,6,0,0,0-3.67,0,2,2,0,0,0-1.17,1c-.17.31,0,.54.26.7.77-.09,1.61.19,2.29-.46.19-.18.54-.11.81,0a.54.54,0,0,1,.34.42c0,.22-.14.33-.33.39a4.16,4.16,0,0,1-1.95.2,5.22,5.22,0,0,0-1.49.49,1.53,1.53,0,0,0-.81,1.26,1.72,1.72,0,0,0,2.14,2,12.36,12.36,0,0,1,3.43-.14,1.31,1.31,0,0,0,.28,0c.25,0,.46-.12.46-.43a30.23,30.23,0,0,1,.53-3.54A1.58,1.58,0,0,0,63.84,165.73Zm-2.6,4.72c-.34.07-.69,0-.81-.38a.59.59,0,0,1,.38-.68,2.43,2.43,0,0,1,1.54-.27A1.27,1.27,0,0,1,61.24,170.45Z"/><path class="cls-1" d="M130.75,165.88a4,4,0,0,0-5.42,1.73,2.79,2.79,0,0,0,2.37,4.17,4.68,4.68,0,0,0,2.53-.35,1.74,1.74,0,0,0,1.2-1.27,3.49,3.49,0,0,0-2.54.13,1.38,1.38,0,0,1-1,0,.66.66,0,0,1-.42-.69c0-.29.29-.33.54-.33l2.58,0c1.25,0,1.58-.41,1.34-1.66A2.42,2.42,0,0,0,130.75,165.88Zm-1,1.93c0,.25-.25.27-.43.27a3.41,3.41,0,0,1-1.52-.09c.41-1.09,1.18-1.39,1.8-.7A.58.58,0,0,1,129.71,167.81Z"/><path class="cls-1" d="M56.29,165.89a4,4,0,0,0-5.53,2,2.77,2.77,0,0,0,2.46,3.92,4.78,4.78,0,0,0,2.53-.34,1.77,1.77,0,0,0,1.19-1.31c-.92-.13-1.72-.41-2.56.14a.89.89,0,0,1-1.27-.28c-.22-.34-.24-.68.27-.7.91,0,1.82,0,2.73,0,1.29,0,1.57-.36,1.36-1.65A2.33,2.33,0,0,0,56.29,165.89Zm-1.11,1.87c0,.3-.3.35-.53.34-.45,0-.93.14-1.36-.15.42-1,1-1.29,1.62-.81A.65.65,0,0,1,55.18,167.76Z"/><path class="cls-1" d="M115.41,165.92a4,4,0,0,0-5.7,2.28,2.73,2.73,0,0,0,2.2,3.53,5,5,0,0,0,2.82-.25,1.94,1.94,0,0,0,1.3-1.32,3.67,3.67,0,0,0-2.58.14,1.19,1.19,0,0,1-1.1-.11.65.65,0,0,1-.32-.6c0-.31.31-.32.55-.33h2.58c1.35,0,1.67-.41,1.39-1.74A2.45,2.45,0,0,0,115.41,165.92Zm-1.16,1.88c-.06.31-.33.3-.56.3a3.38,3.38,0,0,1-1.38-.13c.56-1,1-1.25,1.61-.88A.61.61,0,0,1,114.25,167.8Z"/><path class="cls-1" d="M99.71,165.81a3.94,3.94,0,0,0-4.59,1,3.25,3.25,0,0,0-.53,3.5,2.5,2.5,0,0,0,2.26,1.48,4.45,4.45,0,0,0,3.14-.86C101.72,169.48,101.56,166.73,99.71,165.81Zm-1.18,3.72c-.28.4-.62.77-1.18.6a1,1,0,0,1-.78-.94c0-1,.55-1.86,1.1-2a.92.92,0,0,1,1,.28A2.05,2.05,0,0,1,98.53,169.53Z"/><path class="cls-1" d="M9.09,160.26a1.35,1.35,0,0,0-1.57.23c-.68-.78-1-.11-1.25.36q-2.85,5-5.66,10c-.13.23-.36.52-.1.77s.54,0,.8-.07h0c1.46.35,1.49.35,2.17-.85q2.68-4.74,5.34-9.48C9,160.91,9.27,160.66,9.09,160.26Z"/><path class="cls-1" d="M107,164.71c-.36,1.78-.71,3.56-1.14,5.32s-.41,1.61,1.37,1.58A.71.71,0,0,0,108,171c.18-.89.42-1.77.61-2.65.34-1.58.65-3.15,1-4.68a1.29,1.29,0,0,0-.92-.22C107.25,163.38,107.26,163.38,107,164.71Z"/><path class="cls-1" d="M105.43,163.47a3.8,3.8,0,0,0-1.71,0c-.53.14-.45.69-.54,1.08-.44,2-.84,3.93-1.24,5.89-.23,1.13-.17,1.19,1,1.18.51,0,1.06.09,1.22-.67.45-2.3,1-4.59,1.43-6.88C105.67,163.84,105.73,163.53,105.43,163.47Z"/><path class="cls-1" d="M50.09,165.51a1.4,1.4,0,0,0-1,.25c-.31.23-.55.43-.94,0-.17-.18-.63-.07-1-.11-.76-.09-1.09.22-1.21,1-.2,1.26-.54,2.51-.79,3.77s-.16,1.19,1,1.18,1,0,1.3-1.06a11.31,11.31,0,0,1,.42-1.81c.26-.59.56-1.21,1.25-1.23.9,0,1-.72,1.32-1.27S50.59,165.54,50.09,165.51Z"/><path class="cls-1" d="M28.2,165.53a1.43,1.43,0,0,0-1.1.21.75.75,0,0,1-1,.06c-1.13-.62-1.92-.09-2.19,1.19s-.5,2.33-.73,3.5-.2,1.12.91,1.13,1.15,0,1.42-1.13c.09-.37.12-.76.21-1.13.25-1,.59-1.82,1.81-1.91.4,0,1.11-1.15,1.05-1.54A.42.42,0,0,0,28.2,165.53Z"/><path class="cls-1" d="M21.1,165.67a.77.77,0,0,0-.88.73c-.3,1.45-.61,2.9-.9,4.35,0,.23-.15.53.05.67.51.37,1.11.17,1.67.18s.54-.31.6-.67c.31-1.69.83-3.33,1-5.09A3.65,3.65,0,0,0,21.1,165.67Z"/><path class="cls-1" d="M20.83,164.85c2.1.25,2.1.25,2.33-1.28C21,163.1,20.44,163.51,20.83,164.85Z"/><path class="cls-1" d="M105.53,158.5l.4-.2A.35.35,0,0,0,105.53,158.5Z"/></g></g></svg>