<svg xmlns="http://www.w3.org/2000/svg" viewBox="0 0 823.45 362.02"><defs><style>.cls-1{fill:#666e8d;}</style></defs><g id="Layer_2" data-name="Layer 2"><g id="isec"><path class="cls-1" d="M224.6,82.28c0-2.2-.57-2.79-2.81-2.78q-54.72.1-109.44,0-54.4,0-108.81-.07c-3,0-3.55.88-3.54,3.67q.11,74.06.06,148.14c0,27.82,10.38,51.45,30.11,70.73,39.79,38.88,103.22,44.33,149,12.72,28.13-19.43,44.65-46.27,45.18-80.85.74-50.53.18-101.07.23-151.61M96.7,222.1C87.79,231,78.86,239.89,70,248.85c-1.19,1.19-1.91,1.46-3.24.11q-13.4-13.56-26.95-27c-1-1-1.2-1.63-.06-2.72,3.26-3.12,6.47-6.29,9.57-9.57,1.24-1.33,1.9-.87,2.93.18,4.79,4.86,9.7,9.61,14.42,14.53,1.38,1.42,2.12,1.31,3.43-.06,4.68-4.83,9.53-9.49,14.2-14.31,1.28-1.31,2-1.61,3.4-.08,2.84,3.1,5.91,6,8.87,9,.5.51.93,1.08,1.47,1.7-.5.55-.9,1-1.34,1.47m17.09-46.32c-1.17,1.19-1.89,1.53-3.23.15Q97.26,162.48,83.8,149.17c-1.25-1.22-1.37-2,0-3.23,3.13-3,6.21-6,9.13-9.15,1.29-1.37,2-1.12,3.16.09,4.69,4.82,9.55,9.48,14.21,14.32,1.4,1.45,2.18,1.58,3.64.05,4.58-4.79,9.41-9.32,14-14.12,1.58-1.68,2.4-1.46,3.86.06,3.32,3.5,6.85,6.8,10.38,10.28-9.75,9.73-19.06,19-28.32,28.31m71.13,46.7c-8.74,8.62-17.38,17.32-26.08,26-.59.58-1.21,1.12-1.93,1.81-.53-.44-1-.79-1.46-1.21Q141.86,235.55,128.26,222c-.85-.85-1.31-1.45-.21-2.5,3.4-3.29,6.77-6.6,10-10,1.39-1.46,1.93-.22,2.65.51,4.85,4.81,9.73,9.57,14.45,14.49,1.39,1.44,2.09,1.29,3.4,0,4.66-4.83,9.52-9.46,14.16-14.31,1.47-1.53,2.27-1.38,3.6.06,2.79,3,5.67,5.93,8.69,8.66,1.64,1.49,1.3,2.3-.09,3.67"/><path class="cls-1" d="M398.48,155.09c12.69,2,25.1-.26,37.43-2.93,1.2-.26,1.34-1,1.3-2.09-.15-3.57-.3-7.14-.22-10.7,0-1.87-.65-1.94-2.23-1.78a225.36,225.36,0,0,1-27.37.95c-6.44-.13-10.16-3.25-11.45-9.12-.49-2.2-.29-3.18,2.4-3.09,6.09.2,12.19.06,18.28.06,6.31,0,12.61,0,18.92,0,1.51,0,2.64-.08,2.79-2,.5-6.26,1.54-12.47.84-18.81-1.39-12.65-8.43-21.37-20-24.27a46.67,46.67,0,0,0-13.78-1.16c-14.83.74-24,8.13-27.56,22.58a70,70,0,0,0-.05,32.73c2.53,11.12,9.36,17.85,20.67,19.61m16.58-57.56c3.4,1.78,6.42,9.53,5.16,13-.44,1.22-1.37.77-2.08.78-3.47,0-6.93,0-10.4,0s-6.93,0-10.39,0c-1.32,0-1.74-.31-1.78-1.76-.31-10.92,9.76-17.2,19.49-12.08"/><path class="cls-1" d="M318.82,122.79a50.66,50.66,0,0,0,8.42,2.53c5,1,10.07,2,15.07,3.17,2.27.53,4.1,1.88,4.08,4.54s-2,4.08-4.37,4.63a29.54,29.54,0,0,1-5.93.68c-8.11.18-16.12-1.07-24.14-2-1.89-.2-2.7-.06-2.69,2.06,0,4.08-.11,8.19-.37,12.26-.1,1.73.95,1.91,2.09,2.12,8.17,1.47,16.32,3,24.66,3a54.71,54.71,0,0,0,11.91-.92c10.52-2.06,16.87-8.36,17.89-18.34,1.86-18.1-5.31-22.89-18-25.81-5.42-1.25-10.89-2.29-16.32-3.48-2.39-.51-4.11-1.83-4-4.49s1.88-4.18,4.45-4.51a45.91,45.91,0,0,1,8.46-.51c7.13.45,14.23,1.11,21.3,2.11,1.25.18,2.2.37,2.19-1.51,0-4.2.16-8.39.26-12.59,0-1.1-.09-1.9-1.57-2.19-10.34-1.85-20.67-3.82-31.25-3-16.36,1.19-25.25,12.27-22.91,28.43,1,6.71,4.39,11.42,10.8,13.88"/><path class="cls-1" d="M451.8,136.24c2.71,10.42,9,17.1,19.89,18.91,10.37,1.73,20.47-.27,30.6-2.11,1.45-.27,1.17-1.21,1.14-2.1-.15-3.57-.45-7.13-.4-10.7,0-2.41-.63-3.22-3.18-2.94a152.64,152.64,0,0,1-15.7,1c-8.5,0-12.38-3.08-13.8-10.78a51.93,51.93,0,0,1,.28-20.63c1.12-5.3,4.43-8,9.68-8.87,6.74-1.06,13.4-.07,20.07.56,1.84.16,2.64-.08,2.64-2.14,0-3.78.2-7.54.44-11.31.09-1.44-.36-1.95-1.8-2.27a97.76,97.76,0,0,0-24-2.7c-15,.48-23.77,8-26.56,22.66a75.76,75.76,0,0,0-1.28,15,69.47,69.47,0,0,0,2,18.4"/><path class="cls-1" d="M627.17,151.85c0,.32,0,.63,0,.94-.11,1.09.42,1.4,1.45,1.5,10.88,1,21.75,2.14,32.67.54,11.63-1.7,18.16-7.35,20.85-18.8a86,86,0,0,0-.23-39.3c-1.29-5.68-4.06-10.57-9.56-13.39a28.88,28.88,0,0,0-12.46-2.88c-8.22-.27-16,1.69-23.89,5.19V55.9c0-6.27,0-6.2-6.37-6.06-1.83,0-2.52.42-2.52,2.44q.12,49.8.06,99.57m10.91-59.43c7.15-2.67,14.44-4.39,22.13-3.83,6.3.45,10.63,3.53,12.53,9.68,2.79,9,2.63,18.21,2,27.46a35,35,0,0,1-2.29,11c-3.26,7.95-10,10.36-17.69,10.8a139.66,139.66,0,0,1-16.36-.51c-2.14-.12-2.5-1-2.46-2.92.08-8,0-16,0-23.94,0-8.2,0-16.39,0-24.58a2.8,2.8,0,0,1,2.12-3.2"/><path class="cls-1" d="M820.76,147.89c-5.38-1-6.85-3.07-6.85-8.42V120.88c0-6.29.05-12.6,0-18.89-.12-14.13-7.3-21.33-21.37-21.52a144.27,144.27,0,0,0-25.06,2.28c-4.63.76-3.93.14-3.91,5.13,0,2.53,1.06,2.74,3.26,2.47,7.28-.87,14.61-1.34,21.94-1.89,12.92-.95,16.93,5.83,16.46,16.47-.23,5.42-.06,5.26-5.54,5.84-8.65.92-17.42,1.07-25.9,3.16-7.92,2-12.84,6.9-13.94,15.14a45.1,45.1,0,0,0-.21,7.54c.51,12.16,7.52,18.89,19.62,19a65.27,65.27,0,0,0,24.85-4.87c1.25-.49,2.29-1.11,3.65.18,3.26,3.13,7.49,4.07,11.83,4.45,1.33.12,3.55,1.08,3.35-1.66-.16-2,2.27-5-2.17-5.81m-17.67-4C795.58,146.36,788,148.15,780,148c-5.92-.11-9.72-3.2-10.82-9a30.38,30.38,0,0,1-.56-5.93c0-8,3.72-12.34,11.65-13.39,7.69-1,15.43-1.6,23.14-2.48,1.54-.18,1.79.43,1.78,1.7,0,3.77,0,7.56,0,11.33,0,3.46-.08,6.93,0,10.38.06,1.69-.36,2.63-2.12,3.21"/><path class="cls-1" d="M12.46,38.26c5.25-.11,10.51.05,15.76-.09,2-.05,2.48.64,2.44,2.51-.12,5.25,0,10.52-.08,15.77,0,1.78.52,2.33,2.34,2.28,4.21-.11,8.42-.1,12.62.07,2.17.08,2.94-.55,2.87-2.8-.17-4.94.06-9.89-.1-14.83-.08-2.26.42-3.12,2.9-3,5.14.22,10.3,0,15.45.11,1.76,0,2.35-.49,2.3-2.29-.12-4.3-.16-8.62,0-12.91.1-2.21-.78-2.57-2.71-2.54-5.14.12-10.3,0-15.45.09-1.9,0-2.55-.47-2.5-2.44.12-5.25,0-10.5.07-15.75C48.41.71,48,0,46.11,0,41.8.14,37.49.2,33.18,0,31-.08,30.53.7,30.58,2.7c.12,5.15,0,10.31.08,15.44.05,1.94-.54,2.59-2.49,2.47-2.5-.16-5-.05-7.56-.05-2.84,0-5.68.08-8.51,0-1.5,0-2,.42-2,1.95.09,4.53.13,9,0,13.55,0,1.87.64,2.26,2.35,2.23"/><path class="cls-1" d="M86.82,38.27c5.26-.16,10.51,0,15.76-.09,1.72,0,2.44.37,2.35,2.25-.16,2.72,0,5.46,0,8.18,0,2.52.14,5.06,0,7.55-.18,2.21.76,2.67,2.72,2.62,4.2-.11,8.41-.11,12.6,0,1.77,0,2.37-.47,2.34-2.3-.12-5.24.06-10.5-.1-15.74-.06-2.13.65-2.62,2.65-2.57,5.25.14,10.51,0,15.76.08,1.68,0,2.45-.29,2.4-2.21-.14-4.4-.12-8.82,0-13.22,0-1.84-.57-2.32-2.34-2.3-5.24.11-10.5-.07-15.74.1-2.3.08-2.79-.67-2.73-2.81.16-5.15,0-10.3.09-15.44,0-1.81-.55-2.34-2.33-2.29-4.09.12-8.19.16-12.29,0-2.29-.1-3.13.5-3.05,2.95.2,5,0,10.08.11,15.11,0,1.91-.43,2.55-2.43,2.5-5.25-.14-10.51,0-15.76-.1-2,0-2.52.56-2.46,2.49.12,4.19.13,8.4,0,12.59-.07,2,.46,2.73,2.59,2.67"/><path class="cls-1" d="M160.18,37.54c1.87,2.14,6.31.38,9.06.67,3.29,0,6,.14,8.76,0,2-.13,2.47.61,2.43,2.51-.12,5.25,0,10.5-.07,15.75,0,1.78.5,2.38,2.31,2.35q6.47-.16,12.93,0c1.91,0,2.54-.58,2.5-2.51-.12-5.15,0-10.3-.08-15.45-.05-2,.43-2.72,2.57-2.66,5.25.16,10.51,0,15.76.08,1.67,0,2.16-.49,2.13-2.13-.09-4.41-.16-8.83,0-13.24.09-2.11-.78-2.38-2.57-2.34-5.14.09-10.3-.06-15.44.07-1.93,0-2.53-.48-2.48-2.45.13-5.14,0-10.28.09-15.43.06-2.11-.63-2.73-2.68-2.66q-6.3.21-12.61,0c-2-.06-2.5.63-2.45,2.52.11,5-.11,10.1.09,15.13.11,2.46-.72,3-3,2.9-3.36-.2-6.73-.05-10.1-.05-7.67,0-7.68,0-7.66,7.54,0,3.23-1.14,7.55.5,9.43"/><path class="cls-1" d="M709.8,154.13a55.12,55.12,0,0,0,21.86.81c10.31-1.47,16.68-7.19,19.13-17.32a75.16,75.16,0,0,0,2-19,78.65,78.65,0,0,0-1.35-16.9c-2.22-11.69-8.31-18.24-19.34-20.39a49.13,49.13,0,0,0-20.31.29c-8.39,1.89-14,6.77-16.73,14.94a54.63,54.63,0,0,0-2.6,14.19c-.56,10-.4,19.89,2.74,29.56a19.75,19.75,0,0,0,14.59,13.84m-7-52.25c2.13-8.67,6.3-12.31,15.25-13.32a42.82,42.82,0,0,1,10.37.13c7.84,1,12.39,5.29,14.06,13.55a81.6,81.6,0,0,1,0,31.91c-1.69,8.71-5.53,12-14.42,13.31a39.85,39.85,0,0,1-12.85-.26c-7.77-1.36-11.49-5.9-12.93-15.26-.7-4.58-.68-9.2-1-13.63.28-5.61.25-11.07,1.56-16.43"/><path class="cls-1" d="M323.4,216c15.23,0,30.47,0,45.71,0,1.93,0,2.78-.33,2.7-2.53-.18-4.31-.14-8.61,0-12.92,0-1.8-.55-2.28-2.31-2.27q-46,.06-92.05,0c-2.09,0-2.39.77-2.33,2.55.1,4.09.18,8.19,0,12.29-.12,2.37.58,3,2.94,2.93,15.13-.12,30.26-.07,45.39-.07"/><path class="cls-1" d="M571.13,116.17a48.82,48.82,0,0,0,10.75,3.44c6.57,1.39,13.29,1.94,19.68,4.16,3.22,1.11,5.35,3,6.19,6.46,2.29,9.4-2.39,16-12.31,17.06-9.18,1-18.25-.3-27.27-1.72-2.47-.38-3.54.21-3.39,2.74a8.84,8.84,0,0,1-.12,2.52c-.4,1.85.58,2.38,2.16,2.58,7.17.9,14.32,2.24,21.6,2.17a46.34,46.34,0,0,0,13.73-1.42c8-2.15,13.46-6.75,14.71-15.31a35.16,35.16,0,0,0-.16-10.64,13.51,13.51,0,0,0-9-11.19,65.16,65.16,0,0,0-10.85-3.18c-6.25-1.28-12.64-2-18.66-4.29a8.06,8.06,0,0,1-5.44-6c-1.63-6.94,2-12.68,9.3-14.2,9-1.88,18-.21,26.95.76,6,.67,6.24.52,5.65-5.63-.11-1-.34-1.45-1.41-1.61-10.5-1.44-21-3.38-31.62-1.64-14.18,2.3-20.51,11.76-17.53,25.83a12.18,12.18,0,0,0,7,9.11"/><path class="cls-1" d="M277.28,154.19c4.61-.2,9.24-.17,13.86,0,2.12.07,2.68-.65,2.67-2.67q-.09-33.7,0-67.39c0-1.77-.52-2.39-2.33-2.34-4.74.11-9.46.19-14.19,0-2.53-.12-3.2.74-3.18,3.16.1,11,0,22,0,33.07s.07,22-.05,33.06c0,2.48.7,3.26,3.19,3.14"/><path class="cls-1" d="M520.64,148.58c0,5.69,0,5.57,5.82,5.71,2.31.06,3-.48,3-2.89-.11-16.51-.06-33-.06-49.51V54.94c0-5,0-4.81-5.13-5.11-2.87-.16-3.69.59-3.67,3.55.11,31.74.06,63.46.06,95.2"/><path class="cls-1" d="M544.52,117.73v31.16c0,5.37,0,5.15,5.43,5.43,3,.15,3.38-.9,3.36-3.52-.1-21.09-.06-42.18-.06-63.26,0-5.76,0-5.64-5.8-5.77-2.29,0-3,.49-3,2.91.15,11,.07,22,.07,33.05"/><path class="cls-1" d="M298.37,270.83c2.38,5.81,4.15,11.68,5.94,17.55,2.44,8,2.44,7.87,10.86,7.87,2.2,0,2.84-.6,2.81-2.81-.12-9-.2-18.06,0-27.09.09-3.12-1.44-3-3.62-3s-3.47-.09-3.38,2.86c.23,7.85.08,15.73.08,23.6l-.55,0c-1.8-6.11-3.57-12.22-5.38-18.33-2.61-8.78-2.62-8.73-11.86-8.09-1.61.1-1.9.74-1.89,2.1,0,9.56,0,19.13,0,28.68,0,.68-.28,1.81.59,1.9a16,16,0,0,0,5.62-.07c1.41-.39.68-2.2.69-3.36.06-7.26,0-14.52,0-21.79"/><path class="cls-1" d="M656.81,317.56c-1.77-.14-3.4-.44-3.32,2.51.22,7.76.07,15.52.07,23.29l-.62.05q-2.57-8.87-5.16-17.73c-2.44-8.29-2.45-8.21-11.15-8.19-2,0-2.7.43-2.68,2.57.12,9.24.14,18.49,0,27.73,0,2.37.86,2.9,2.91,2.65,1.76-.22,4.08.91,4-2.61-.22-6.72-.1-13.44-.08-20.16,0-1.05-.29-2.18.57-3.51,1.94,6.39,3.75,12.41,5.59,18.41,2.47,8.11,2.49,8.05,11.14,7.9,1.88,0,2.51-.51,2.49-2.46-.08-9.35-.17-18.71,0-28.05.08-3.45-2.15-2.27-3.76-2.4"/><path class="cls-1" d="M662.62,269.83c-1.11-4.07-4.33-5.9-8.24-6.16-4.69-.33-9.43-.18-14.14-.26-1.14,0-1.43.65-1.43,1.61,0,9.85-.18,19.71.1,29.56.08,3.2,3.12,1.1,4.75,1.59s2.25-.35,2.15-2c-.11-2.3.05-4.61,0-6.91,0-1.31.38-1.79,1.77-1.88,4.31-.27,4.33-.33,6,4.73,2.18,6.46,2.18,6.46,9.49,6-1.25-3.36-2.33-6.51-3.6-9.59-.73-1.74-.57-2.82.9-4.27,3.53-3.48,3.43-7.93,2.23-12.34m-6.33,4.64c0,3.85-1.75,5.17-6.86,5.12-4.26,0-3.54.61-3.62-5.35.11-5.32-.8-4.94,3.72-5,5.17,0,6.8,1.25,6.76,5.19"/><path class="cls-1" d="M320.64,318c-4.69-.83-9.43-.2-14.14-.48-1.81-.11-2.33.53-2.29,2.3.12,4.73,0,9.45,0,14.18s.08,9.44,0,14.17c0,1.82.59,2.36,2.35,2.29,3.88-.13,7.77,0,11.65-.17,5.74-.27,9.26-3,10.42-8.29a38.21,38.21,0,0,0,.07-16.25,9.28,9.28,0,0,0-8.06-7.75m1.26,21.64c-.87,3.8-6.51,6.48-10.08,4.87-.93-.43-.7-1.17-.72-1.85,0-2.93,0-5.87,0-8.8s.07-5.66,0-8.48c0-1.37.44-1.9,1.8-1.81s2.52,0,3.77,0c3.19.07,5.12,1.64,5.51,4.85a31.92,31.92,0,0,1-.24,11.24"/><path class="cls-1" d="M775.19,263.88c-4.59-.84-9.22-.21-13.82-.51-2.09-.12-2.43.75-2.38,2.56.11,4.6,0,9.23,0,13.84s.07,9.44,0,14.16c0,1.78.46,2.38,2.28,2.32,4.09-.16,8.19.06,12.27-.17,5.67-.31,9.1-3.49,10.06-9a43.82,43.82,0,0,0,0-14.72c-.82-4.83-3.6-7.56-8.43-8.44m1,23.07c-1,2.85-6.72,4.74-9.57,3.43-.95-.44-.65-1.21-.66-1.87,0-2.82,0-5.66,0-8.49a47.32,47.32,0,0,1,.06-6c.19-1.52-1.3-3.84,1.19-4.47,4.51-1.15,8.46.16,9.24,3.12a24.5,24.5,0,0,1-.25,14.24"/><path class="cls-1" d="M737.36,286.46c-.77-1.79-.57-2.81.85-4.27,3.53-3.61,3.65-8.08,2.19-12.63-1.3-4.05-4.61-5.68-8.48-5.95-4.5-.29-9-.1-13.54-.22-1.56,0-1.63.83-1.63,2,0,9.66,0,19.33,0,29,0,.66-.25,1.41.78,1.8,3.42,1.31,6-.31,6.05-3.85a23.69,23.69,0,0,1,0-3.77c.18-1.11-1-3.18,1.31-3.08,2,.08,4.72-1.52,5.65,2,.62,2.42,1.67,4.73,2.41,7.14.33,1.07.81,1.59,2,1.56,1.87,0,3.73,0,6,0-1.29-3.5-2.3-6.69-3.61-9.74m-10.14-6.87c-4.28,0-3.55.8-3.63-5.54.69-1.61-1.87-5.1,3-4.85,5.7.27,7.65,1.3,7.72,5s-1.92,5.43-7.06,5.36"/><path class="cls-1" d="M709.3,271.76c-1.29-5.19-4.53-8-9.84-8.73a22.33,22.33,0,0,0-6.88.23,10,10,0,0,0-8.05,6.7c-1.75,4.75-1.79,9.64-1.29,14.59.88,8.67,4.87,12.3,13.55,12.28,7.42,0,11.08-2.59,12.67-9.19a33,33,0,0,0-.16-15.88m-6.5,13.93c-.62,3.56-2.55,5.2-6,5.26s-5.56-1.34-6.28-4.89a27.66,27.66,0,0,1,.31-13.07c.82-3,2.88-4.17,5.89-4.13s4.75,1.26,5.67,4.05c.76,2.33.6,4.77,1,7.08-.19,1.95-.28,3.83-.59,5.7"/><path class="cls-1" d="M489.36,296.81a31.59,31.59,0,0,0,3.77-.08c5.59-.41,8.91-3.11,10.34-8.5a37.55,37.55,0,0,0,.76-11.87c-.64-10.27-6.45-14.82-16.64-13.26-5.09.78-8.13,3.52-9.46,8.38a29.79,29.79,0,0,0-1,8.81,22.49,22.49,0,0,0,.52,6.16c1.09,6.78,4.87,10.12,11.72,10.36m-4.73-22.7c.68-3.47,2.53-5.09,5.7-5.22,3.68-.14,5.3,1.11,6.38,4.72a24.43,24.43,0,0,1,.6,6.54,24.76,24.76,0,0,1-.49,6c-1,3.58-2.7,4.93-6.29,4.85-3.44-.07-5.23-1.67-5.95-5.27a29.26,29.26,0,0,1,.05-11.57"/><path class="cls-1" d="M507.29,331.23c-.39-11.07-7-16.12-17.81-13.82a10,10,0,0,0-8,7.14,32.38,32.38,0,0,0-.27,18.3c1.16,4.37,4.05,6.88,8.51,7.81,10.52,2.19,17.1-2.77,17.59-13.45,0-1,0-2.1,0-3.15s0-1.88,0-2.83m-7.57,9.31a5.73,5.73,0,0,1-5.94,4.6,5.65,5.65,0,0,1-6-4.53,27.62,27.62,0,0,1,.09-13.4c.71-2.92,2.86-4.26,5.82-4.3a5.6,5.6,0,0,1,6,4.52,20.84,20.84,0,0,1,.66,6.75,20,20,0,0,1-.62,6.36"/><path class="cls-1" d="M469,318.07c-2.38-1.56-6.47-.46-9.82-.52-.21,0-.42,0-.63,0-1.42-.21-2,.45-2.35,1.83-2.12,9.69-4.3,19.39-6.44,29.09-.13.56-.62,1.17-.07,1.73,1.2,1.23,6.77-.08,6.8-1.71.07-3.89,2.36-4.23,5.38-4a20.88,20.88,0,0,0,4.4,0c1.79-.18,2.91.38,2.92,2.24,0,3.44,2,4.12,4.91,3.69a21.34,21.34,0,0,1,2.71,0c-1.8-8-3.48-15.66-5.25-23.3-.73-3.14-.3-7.6-2.56-9.06m-3.18,20.39c-2.28-.07-4.57,0-7.11,0,1-4.81,2-9.28,3-13.76.16-.71.18-1.43,1.23-1.47s1.33.63,1.52,1.54c.81,4,1.65,8,2.54,11.94.24,1.1.31,1.81-1.17,1.77"/><path class="cls-1" d="M414.27,323.62c-1.4-6.1-1.45-6.09-7.68-6.09a16.42,16.42,0,0,1-2.53,0c-3-.45-4.25.56-4.86,3.79-1.64,8.76-3.87,17.4-5.74,26.1-.21.93-1.61,2.87.63,2.88,1.91,0,5.2,1.65,5.63-1.33.62-4.33,2.82-4.87,6.33-4.43a21.5,21.5,0,0,0,4.09,0c1.58-.13,2.5.5,2.47,2.05-.08,4,2.45,4,5.4,3.9,1.8-.08,2.28-.33,1.8-2.31-2-8.16-3.67-16.37-5.54-24.55m-3.93,14.65c-8.28,1-8.28,1-6.62-6.93.46-2.16.92-4.31,1.35-6.46.17-.87.26-1.63,1.44-1.68s1.27.95,1.42,1.69c1,4.39,1.89,8.8,2.8,13.16-.21.12-.29.21-.39.22"/><path class="cls-1" d="M728.88,323.89c-1.45-6.34-1.45-6.36-7.74-6.36a20.42,20.42,0,0,1-3.13,0c-2.66-.44-3.53.7-4.06,3.26-1.81,8.92-4,17.76-5.88,26.67-.17.8-1.89,2.83.44,2.82,2,0,5.38,1.93,5.81-1.38.59-4.51,3.09-4.65,6.43-4.35a18.37,18.37,0,0,0,3.78,0c1.67-.19,2.67.45,2.71,2.1,0,3.31,1.79,3.92,4.8,3.91,2.8,0,2.74-1,2.25-3.08-1.86-7.85-3.62-15.7-5.41-23.56m-6.51,14.57a7.45,7.45,0,0,0-1.25,0c-4.42,0-4.41,0-3.46-4.22.67-3.06,1.31-6.13,2-9.18.2-.84.08-2,1.57-1.84,1.23.09,1.12,1,1.29,1.77.76,3.47,1.43,7,2.33,10.39.62,2.36.22,3.55-2.49,3.09"/><path class="cls-1" d="M357.23,317.54c-1.76-.07-3.44-.47-3.32,2.51.26,6.29.11,12.6.07,18.89,0,4.12-1.82,6.07-5.54,6.15-3.93.09-5.85-1.82-5.89-6-.06-5.68,0-11.35,0-17,0-4.7,0-4.61-4.78-4.54-1.7,0-2.15.54-2.1,2.16.11,3.46,0,6.92,0,10.39s-.06,6.72,0,10.09c.16,6.29,3.22,9.78,9.35,10.66a26.9,26.9,0,0,0,4.4.15c7.39-.15,11.28-4,11.35-11.36.08-6.5-.15-13,.09-19.53.12-3.33-1.95-2.43-3.67-2.51"/><path class="cls-1" d="M574.25,286.78c.11-3.47,0-6.93,0-10.39s-.19-6.95.06-10.4c.24-3.22-1.84-2.49-3.62-2.59-2-.11-3.35-.11-3.26,2.68.22,6.4.13,12.81,0,19.2-.07,4.07-2.21,5.92-6.22,5.66-3.53-.21-5.22-2.2-5.27-6.45-.06-6.28-.08-12.59,0-18.89,0-1.9-.78-2.57-2.41-2.14s-4.32-1.56-4.34,1.76c0,7.44-.44,14.9.22,22.34.46,5.18,3.13,8,8.18,9a22.06,22.06,0,0,0,8.14,0c5.37-1,8.24-4.32,8.44-9.79"/><path class="cls-1" d="M436.72,296.5c5-1,7.82-4.22,8.08-9.42.19-3.55,0-7.13,0-10.68h.11c0-3.16-.13-6.31,0-9.46.14-2.47-.16-3.86-3.27-3.63-2.54.18-4,.25-3.8,3.5.31,5.95.1,11.94.08,17.93,0,4.4-1.68,6.22-5.61,6.21s-5.7-1.87-5.73-6.19c0-5.66,0-11.33,0-17,0-4.82,0-4.75-4.93-4.38-1.37.09-1.85.56-1.84,1.87.06,7.35-.11,14.69.18,22,.21,5.22,2.94,8.14,7.91,9.2a21.37,21.37,0,0,0,8.76,0"/><path class="cls-1" d="M810.07,290.38c-3.56.18-7.14,0-10.72.07-1.27,0-1.79-.29-1.88-1.72-.41-6-.48-6,5.51-6,1.37,0,2.74-.08,4.1,0,1.69.15,2.11-.6,2.19-2.19.12-2.55-.19-4.37-3.46-3.8a19.12,19.12,0,0,1-3.47,0c-5,0-4.91,0-4.87-5.07,0-1.78.54-2.34,2.3-2.27,3.36.11,6.74-.13,10.09.07,2.69.17,2.19-1.56,2.15-3.05s.71-3.22-2-3.14c-5.67.15-11.34.1-17,0-1.81,0-2.35.58-2.3,2.34.1,4.62,0,9.24,0,13.86,0,4.84.06,9.67,0,14.49,0,1.65.51,2.19,2.15,2.17,5.78-.09,11.56-.13,17.33,0,2.59.05,1.85-1.69,1.87-3s.64-3-1.92-2.89"/><path class="cls-1" d="M294.67,344.55h-6c-5.44,0-5.35,0-5.31-5.32,0-2,.7-2.55,2.56-2.45,2.41.11,4.83,0,7.24,0,2.71.11,1.92-1.82,2-3.24.12-1.6.08-2.9-2.2-2.75-2.51.19-5,0-7.56.06-1.42.05-2.19-.33-2-1.91a13.48,13.48,0,0,0,0-2.84c-.29-2.11.56-2.73,2.63-2.64,3.36.17,6.71,0,10.08.07,2.83,0,1.63-2.09,1.78-3.39s.5-2.74-1.82-2.69c-5.77.13-11.55.1-17.32,0-1.69,0-2.15.56-2.12,2.17.08,4.73,0,9.44,0,14.16s0,9.65,0,14.48c0,1.33.19,2.16,1.85,2.15,5.87-.08,11.76,0,17.63,0,.68,0,1.4.19,1.78-.83,1.06-3-.22-5-3.25-5"/><path class="cls-1" d="M620.7,269.49c3.36.13,6.73-.06,10.09.06,2.8.09,1.84-1.93,1.93-3.27s.45-3-2-2.91c-5.76.14-11.54.09-17.31,0-1.69,0-2.16.58-2.13,2.18.08,4.72,0,9.44,0,14.17s0,9.43,0,14.16c0,1.37,0,2.39,1.93,2.34,5.87-.1,11.76-.09,17.63,0,2.83,0,1.72-2,1.91-3.29.18-1.47.1-2.63-2-2.55-3.55.16-7.13.05-10.7,0-.77,0-1.6.25-2-1-1.3-4.56.19-6.66,4.84-6.66a40.5,40.5,0,0,1,4.41,0c2,.23,2.37-.66,2.46-2.5.11-2.57-.33-4-3.35-3.48a18.26,18.26,0,0,1-3.77,0c-5.08-.1-4.44.94-4.63-4.74-.07-2.13.69-2.68,2.68-2.59"/><path class="cls-1" d="M597.36,263.76c-4.17-.75-8.39-.09-12.57-.39-2.31-.17-2.85.79-2.8,2.88.11,4.51,0,9,0,13.54,0,4.73,0,9.44,0,14.17,0,.77-.37,2,.75,2.1,1.76.2,3.71.48,5.3-.06s.54-2.41.67-3.68a16.1,16.1,0,0,0,0-3.47c-.15-1.68.57-2.21,2.19-2.13a35.63,35.63,0,0,0,5.66-.12c5.77-.64,9-4.67,9.19-11.18.18-6.83-2.51-10.58-8.44-11.66M593.29,281c-4.51.09-4.51.09-4.51-6,0-.41,0-.83,0-1.25.14-5.06-1-4.34,4.54-4.39,4.12,0,5.53,1.43,5.56,5.42,0,4.38-1.55,6.12-5.59,6.21"/><path class="cls-1" d="M625,344.5c-3.14.21-6.31-.07-9.44.09-2,.11-2.65-.66-2.43-2.53a8.53,8.53,0,0,0,0-2.2c-.31-2.35.37-3.48,3-3.12,2.06.26,4.2,0,6.29.09,1.85.13,2.19-.65,2.32-2.34.2-2.79-.55-4.09-3.57-3.66-1.64.24-3.38-.12-5,.09-2.56.31-3.42-.7-3.06-3.13a7.72,7.72,0,0,0,0-2.2c-.22-1.72.55-2.12,2.16-2.06,3.24.09,6.52-.16,9.76,0,2.12.1,2.87-.54,2.63-2.62-.19-1.63.69-3.59-2.41-3.47-5.56.23-11.14.13-16.69,0-1.76-.05-2.36.43-2.31,2.24.12,4.74,0,9.45,0,14.17,0,4.51.11,9-.05,13.53-.08,2.22.34,3.14,2.85,3,5.25-.21,10.51-.21,15.75,0,2.55.11,2.88-.91,2.87-3.09s-.37-3.05-2.73-2.89"/><path class="cls-1" d="M444.09,317.86a37.38,37.38,0,0,0-10-.83c-5.68.54-8.28,2.8-9.57,8.32a42.71,42.71,0,0,0-.2,16.25c.71,4.77,3.06,8.26,8.19,9.06,1.62.25,1.61,1.17,1.64,2.4,0,.8-.63,2,.76,2.35.78.21,2,0,1.77,1.22s-1.5.89-2.36.89c-1.38,0-1.51.77-1.49,1.82s-.45,2.17,1.2,2.37a14,14,0,0,0,4.38.2c2.83-.51,4.22-2.27,4.27-5.32,0-2.85-1.36-4.27-4.15-4.45-.56,0-1.31.18-1.7-.95,2.61-.33,5.12-.53,7.58-1,3-.57,1-2.93,1.31-4.41.37-1.71-1.12-1.25-2.12-1.2-2.41.11-4.81.28-7.22.28-3.12,0-4.84-1.78-5.29-4.75a40.05,40.05,0,0,1,.06-12.22c.59-3.64,2.09-4.73,5.86-4.76,2.1,0,4.19.16,6.29.22,1,0,2.58,1.06,2.46-1.06-.09-1.58,1.56-3.86-1.67-4.43"/><path class="cls-1" d="M544.76,317.49c-5.66.14-11.34.12-17,0-1.77,0-2.35.49-2.31,2.29.12,4.7,0,9.43,0,14.14s0,9.66,0,14.49c0,1.42.35,2.05,1.93,2,5.77-.09,11.55-.13,17.32,0,2.43.06,2.07-1.43,2-2.89s.45-3.25-2.19-3.07-5,.08-7.55,0c-5.3-.08-4.62,1-4.8-4.88-.07-2.13.48-3.08,2.76-2.89s4.43-.17,6.61.08c2.57.27,2.33-1.25,2.32-2.89s.35-3.4-2.42-3.12c-2.39.24-4.83,0-7.24.06-1.46.05-2.14-.42-2-1.95a14.33,14.33,0,0,0,0-3.14c-.25-1.91.65-2.31,2.34-2.27,3.36.09,6.73-.12,10.07,0,3.12.13,1.8-2.12,2.05-3.49s.25-2.61-1.93-2.56"/><path class="cls-1" d="M754,331.59c-2.34-.91-4.73-1.68-7.07-2.56-1.37-.52-2.46-1.44-2.26-3a3.31,3.31,0,0,1,2.94-2.86c2.11-.45,4.19-.07,6.84,0,.58.05,1.74.09,2.88.27s2.56.46,2.25-1.39c-.23-1.37,1.74-3.52-1.19-4-4.12-.75-8.25-1.58-12.46-.75-5.13,1-7.4,3.43-7.94,8.3s1.25,7.71,6.14,9.72c2.5,1,5.11,1.82,7.65,2.79a3,3,0,0,1,2.15,3.14,3.58,3.58,0,0,1-2.72,3.46,8.64,8.64,0,0,1-3.4.37c-2.29-.28-4.62-.27-6.89-.63-1.5-.26-2.35,0-2.12,1.59.18,1.26-1.9,3.14,1,3.75A39.31,39.31,0,0,0,751,350.92c5.48-.41,8.84-3.6,9.61-9,.73-5.15-1.22-8.21-6.61-10.31"/><path class="cls-1" d="M346.66,287.82c.61-5.15-1.05-8-6-10-2.22-.9-4.54-1.59-6.79-2.46-1.68-.65-3.51-1.43-3-3.73.44-2.09,2.21-2.64,4.12-2.68a48,48,0,0,1,8.79.53c.87.14,2.15.44,1.93-1.1s1.56-3.75-.85-4.3c-4.68-1.07-9.49-1.92-14.31-.56a8.3,8.3,0,0,0-6.44,7.64c-.49,4.61.87,7.32,4.67,9.42,2.4,1.34,5.09,1.88,7.64,2.81,2,.72,3.93,1.5,3.58,4s-2.31,3.63-4.78,3.54c-2.82-.11-5.65-.33-8.47-.63-1.12-.11-1.55.05-1.89,1.3-.72,2.7-.45,4.36,2.84,4.51,2.19.09,4.36.56,6.19.8,1.74-.1,3.12-.05,4.45-.26,4.88-.78,7.8-3.92,8.38-8.83"/><path class="cls-1" d="M531.32,296.87c1-.05,2.1,0,3.15-.17,4.82-.57,8.15-3.64,8.79-8,.84-5.81-.75-8.74-6.07-10.92-2.23-.9-4.55-1.6-6.79-2.47-1.59-.61-3.23-1.37-2.9-3.53s2.07-2.72,4-2.81a39.07,39.07,0,0,1,8.77.52c1.17.21,2.25.08,2.14-1.39s1.41-3.55-.8-4c-4.7-1-9.49-1.94-14.31-.58a8.43,8.43,0,0,0-6.6,7.87c-.42,4.46,1,7.42,4.94,9.28a79.45,79.45,0,0,0,7.66,2.81c2,.7,3.7,1.66,3.26,4.22s-2.35,3.33-4.63,3.29a51,51,0,0,1-7.52-.57c-2.25-.39-2.83.49-3.14,2.51s.36,2.85,2.29,3.07c2.59.32,5.16,1,7.8.93"/><path class="cls-1" d="M385.49,344.69c-10.29.62-11.32-.34-11.31-10.48a28.67,28.67,0,0,1,.4-6.27c.83-3.71,2-4.79,5.78-4.81a40.66,40.66,0,0,1,6.9.38c1.71.29,1.86-.37,2.05-1.75.38-2.65-.4-4-3.26-4.24s-5.82-.81-8.77-.47c-4.55.51-8,2.47-9.11,7.28a41.62,41.62,0,0,0-.09,19,9,9,0,0,0,8,7.38,36.8,36.8,0,0,0,11.89-.52c1-.18,1.28-.77,1.36-1.76.33-3.63,0-4-3.85-3.74"/><path class="cls-1" d="M585.36,345.74c.29-1.8-1.2-1.2-2.15-1.15-2,.1-4,.36-6,.35-4.74,0-6.46-1.59-6.79-6.34a66.11,66.11,0,0,1,0-8.79c.33-5.33,1.92-6.71,7.3-6.68a19.91,19.91,0,0,1,4.71.24c2.36.59,3,0,3.08-2.48.07-2.2-.65-3-2.62-3.21-3-.38-6-1-9.07-.67-5.93.55-8.54,2.91-9.88,8.73a29.54,29.54,0,0,0-.44,8.13,54.64,54.64,0,0,0,0,6.27c.76,6.5,3.46,9.77,8.86,10.62a31.55,31.55,0,0,0,11.57-.59c2.81-.61,1.11-2.92,1.35-4.43"/><path class="cls-1" d="M683.27,323.12a30.39,30.39,0,0,0,3.15.18c.91-.05,2.59,1.37,2.57-.79,0-1.67,1.43-4.19-1.79-4.72a36.39,36.39,0,0,0-10-.75c-5.37.6-8.06,2.78-9.26,7.93a40.25,40.25,0,0,0-.1,17.81c1.13,5.24,4.41,7.81,9.8,8.13a74,74,0,0,0,8.8-.42c3.48-.24,2.65-2.49,2.67-4.44,0-2.84-2.05-1.13-3.18-1.36a9,9,0,0,0-2.19.1h0c-.73,0-1.47.1-2.2.12-5,.12-6.51-1.15-7.3-6.15a31.73,31.73,0,0,1-.16-7.54c.62-7.38,1.79-8.36,9.22-8.11"/><path class="cls-1" d="M394.41,269.54c.82-.14,1.69.08,2.51,0,2.2-.31,2.86.55,2.82,2.76-.13,7,.14,14.07-.13,21.08-.12,3.25,1.68,2.77,3.69,2.9,2.32.15,3.42-.33,3.21-3-.25-3.32-.05-6.7-.05-10.06v-7.24c0-6.26,0-6.41,6.32-6.34,2.73,0,2.4-1.44,2.44-3.16s.21-3.19-2.48-3.09c-6.39.2-12.8.13-19.2,0-2,0-2.65.45-2.77,2.58-.14,2.89.72,4.07,3.64,3.59"/><path class="cls-1" d="M453,269.55c.92-.17,1.91.09,2.84-.06,2.2-.33,2.66.76,2.61,2.68-.1,3.57,0,7.13,0,10.69h-.05c0,3.57.2,7.14-.06,10.69-.21,2.82,1.33,2.79,3.25,2.66,1.73-.12,3.79.76,3.65-2.54-.25-5.74-.07-11.52-.07-17.29,0-6.61,0-6.77,6.52-6.78,2.94,0,2.11-1.83,2.21-3.34s.23-3-2.31-2.91c-6.49.2-13,.13-19.51,0-1.93,0-2.48.6-2.56,2.47-.14,2.69.4,4.26,3.51,3.71"/><path class="cls-1" d="M372.09,269.58c2.75.1,2.05-1.71,2.07-3.14s.6-3.15-2.11-3.08c-6.61.17-13.22.11-19.83,0-1.8,0-2.25.62-2.41,2.31-.28,2.89.41,4.44,3.65,3.87.92-.17,1.91.07,2.83-.06,1.95-.24,2.48.49,2.44,2.45-.12,7.23.08,14.47-.11,21.7-.08,3.2,1.91,2.47,3.69,2.57s3.43.14,3.21-2.66c-.28-3.43-.07-6.91-.07-10.37,0-2.2,0-4.41,0-6.61s-.65-4.93.4-6.41c1.18-1.67,4.1-.66,6.23-.58"/><path class="cls-1" d="M595.3,317.57c-1.49.11-3.75-1.09-3.61,2.18.19,4.62,0,9.24,0,13.85,0,4.85.15,9.68-.07,14.5-.11,2.55,1.28,2.54,2.91,2.29s4,1.28,4-2.21c-.1-9.45-.14-18.91,0-28.35,0-2.9-1.7-2.38-3.27-2.26"/><path class="cls-1" d="M702.25,321.91c0-4.52,0-4.38-4.53-4.43-2.09,0-2.39.8-2.35,2.58.1,4.62,0,9.23,0,13.85s.15,9.45,0,14.16c-.14,3.45,2.26,2.16,3.84,2.34s3.18.35,3.12-2.38c-.18-8.71-.06-17.41-.06-26.12"/><path class="cls-1" d="M382.65,263.43c-1.63,0-3.55-.76-3.49,2.36q.27,14,0,28c0,2.73,1.42,2.57,3.12,2.38s4,1.12,3.85-2.33c-.19-4.61-.05-9.23-.05-13.85s-.16-9.45.06-14.16c.14-3.06-1.81-2.43-3.48-2.41"/><path class="cls-1" d="M280.26,296.17c1.58.11,3.29.6,3.24-2.28-.18-9.34-.16-18.7,0-28.05.06-2.68-1.37-2.54-3.13-2.43s-3.9-.79-3.75,2.51c.21,4.61.05,9.24.05,13.86s.13,9.46,0,14.18c-.12,3.22,2.12,2.12,3.64,2.21"/><path class="cls-1" d="M673.47,263.41c-1.66.18-3.94-.93-3.81,2.43.19,4.73.06,9.45.06,14.18s.14,9.25-.07,13.87c-.12,2.87,1.69,2.38,3.28,2.28s3.65,1,3.61-2.21q-.24-14,0-28c0-2.58-1.22-2.71-3.08-2.51"/><path class="cls-1" d="M462.41,306.71c-3-1.22-5.67-1-8.1,1.32-1.7,1.62,0,3.1.14,4.61.05.48.52,1.15,1.06.64,3-2.83,5.88-.6,8.75.24a6.34,6.34,0,0,0,6.89-1.74c1.85-2-.32-3.59-.54-6-2.72,3.28-5.5,2-8.2.94"/><path class="cls-1" d="M550.15,64.08a3.32,3.32,0,0,1,.63,0c1.85.27,2.69-.34,2.51-2.39a33.18,33.18,0,0,1,0-6c.22-2.32-.78-2.78-2.88-2.77-5.9,0-5.9,0-5.9,5.66,0,5.5,0,5.5,5.64,5.48"/><path class="cls-1" d="M616.55,311.9c.29-.38.83-.86,1.26-.21,2.09,3.21,5.3,1.55,8.45,2.06-7-11-12.2-9.38-18,0,3-.64,6.05,1.13,8.26-1.89"/></g></g></svg>