<svg xmlns="http://www.w3.org/2000/svg" viewBox="0 0 771.61 165.14"><defs><style>.cls-1{fill:#666e8d;}</style></defs><g id="Layer_2" data-name="Layer 2"><g id="Camada_1" data-name="Camada 1"><path class="cls-1" d="M771.29,118.85q-23.34,0-46.69,0c-.87,0-1.12-.17-1.12-1.09q.06-13.62,0-27.25c0-1,.24-1.16,1.17-1.15,12.94,0,25.88,0,38.82,0,.86,0,1.16-.18,1.15-1.11q-.07-6.57,0-13.14c0-1-.3-1.17-1.22-1.17-12.94,0-25.88,0-38.82,0-.9,0-1.1-.22-1.1-1.11q.06-13.14,0-26.28c0-.91.17-1.18,1.15-1.18,15,0,30,0,45,.05,1.06,0,1.3-.31,1.29-1.32q-.09-6.68,0-13.35c0-1-.23-1.18-1.18-1.18q-32.84,0-65.67,0c-1,0-1.22.29-1.22,1.24q0,51.6,0,103.21c0,1.07.29,1.26,1.3,1.26q33.1,0,66.21,0c.43,0,.86,0,1.29,0v-16.6A1.75,1.75,0,0,1,771.29,118.85Z"/><path class="cls-1" d="M408,29.71h-9.26c-2.88,0-5.76,0-8.64,0h-.25c-.53.07-.74.3-.79.87a.75.75,0,0,1,0,.15c.06.61,0,1.22,0,1.83q0,22.22,0,44.44,0,10.45,0,20.92v0a1.25,1.25,0,0,1,0,.79c0,.08,0,.16,0,.23s0,.07-.06.07a.8.8,0,0,1-.16-.08c-1.54-2.13-3.09-4.24-4.6-6.39q-9-12.87-18.06-25.76L344,35.16c-1.23-1.76-2.56-3.44-3.63-5.31a1.74,1.74,0,0,0-.84-.15h-.2c-6.22,0-12.44,0-18.66,0a2.08,2.08,0,0,0-.53,0c-.41.11-.52.39-.52,1q0,51.8,0,103.58c0,.36.05.71.08,1.07h20.4c0-.46.07-.93.07-1.39q0-33.5,0-67a2.52,2.52,0,0,1,0-1c.1-.22.24,0,.3.17,1.2,1.74,2.45,3.45,3.65,5.19q4.47,6.48,9,12.87c3.68,5.18,7.25,10.44,10.88,15.65s7.22,10.34,10.84,15.5c4.47,6.37,9,12.72,13.4,19.1a1.75,1.75,0,0,0,1.67.83c6.11,0,12.21,0,18.32,0,1.15,0,1.3-.34,1.3-1.36q0-52.12,0-104.25C409.1,29.76,408.54,29.71,408,29.71Z"/><path class="cls-1" d="M592.19,56.11c-.31-1.49-.52-3-.93-4.46a27.22,27.22,0,0,0-13.48-17.33c-4.94-2.7-10.35-3.67-15.84-4.34a5,5,0,0,1-1.1-.06,1,1,0,0,1-.42-.1l-1.94-.06q-22.53,0-45.07-.08h-2.65c-1,0-1.3.29-1.3,1.38q0,51.47,0,102.94c0,.46.05.93.08,1.39H530c0-.43.08-.86.08-1.28q0-20.46,0-40.93c0-.35-.21-.78.17-1.09h0A1.13,1.13,0,0,1,531,92h23.88a.46.46,0,0,1,.34.12c.79,1.77,1.34,3.64,2.07,5.43,1.7,4.22,3.24,8.51,4.87,12.75q1.86,4.83,3.65,9.68c.84,2.26,1.74,4.5,2.54,6.79.88,2.54,2,5,2.88,7.53.28.79.56,1.12,1.43,1.12,5.93,0,11.86,0,17.79,0,1.44,0,1.43,0,.9-1.31q-2.61-6.51-5.2-13c-4.11-10.39-8.18-20.8-12.32-31.18-.37-1-.25-1.27.71-1.67A29.16,29.16,0,0,0,587.6,78a29.44,29.44,0,0,0,4.59-12.61,2.26,2.26,0,0,1,.06-.82.52.52,0,0,1,.1-.26l.06-1.5V58.69l-.06-1.5A2.1,2.1,0,0,1,592.19,56.11ZM561.54,75.5a32.61,32.61,0,0,1-8.72,1.17c-7.22,0-14.44,0-21.66,0-.89,0-1.13-.22-1.13-1.12q0-14.7,0-29.4c0-.9.15-1.22,1.16-1.2,4.23.06,8.47,0,13.52,0,3.47.08,7.75-.2,12,.13a18,18,0,0,1,12.18,5.41C575.05,57,574.06,72,561.54,75.5Z"/><path class="cls-1" d="M491.24,29.74a.66.66,0,0,1,.24.23A.28.28,0,0,0,491.24,29.74Z"/><path class="cls-1" d="M492.16,119.37a1.07,1.07,0,0,0-.14-.55l-.43,0H445c-.28,0-.58.08-.83-.1a.55.55,0,0,1-.13-.4c0-.14,0-.29,0-.44q0-13.75,0-27.53c0-.14,0-.29,0-.43a.52.52,0,0,1,.14-.4l0,0a1.13,1.13,0,0,1,.8-.14l.36,0h38.56c.41,0,.82,0,1.23-.08,0-4.74,0-9.48,0-14.22,0-.93-.27-1.09-1.13-1.09q-19.37,0-38.71,0a2.09,2.09,0,0,1-1.16-.11.61.61,0,0,1-.12-.53V46.15a.6.6,0,0,1,.12-.53,13.38,13.38,0,0,1,3.1-.11l44.09,0c0-.25.07-.5.08-.75,0-4.73,0-9.47,0-14.21,0-.49,0-.79-.5-.86-.19,0-.43,0-.76,0H423.87a2.07,2.07,0,0,0-.42.08q0,52.18,0,104.37c0,.94.18,1.24,1.2,1.23q33,0,66.09,0l1.29,0a1.07,1.07,0,0,0,.14-.55.13.13,0,0,1,0-.06q0-7.68,0-15.36A.13.13,0,0,1,492.16,119.37Z"/><path class="cls-1" d="M671.09,29.68a1.72,1.72,0,0,0-1.62.86L660,44.45c-3,4.44-6.06,8.88-9.1,13.31q-5.37,7.8-10.75,15.58Q635.5,80,630.9,86.71c-2.47,3.61-4.9,7.24-7.37,10.85-.69,1-1.44,2-2.31,3.13V30.6c0-.25,0-.51,0-.76a1.18,1.18,0,0,0-.58-.14H601.14a1.18,1.18,0,0,0-.58.14c0,1,0,2,0,2.94a2.69,2.69,0,0,1,.09,1.16c0,.65,0,1.3,0,2,.05,2.07.08,4.13,0,6.2,0,3.15,0,6.29.07,9.44a2.42,2.42,0,0,1,.09,1.16c0,.66,0,1.32,0,2,.06,2.06.08,4.11,0,6.17q0,4.69.07,9.41a2.89,2.89,0,0,1,.09,1.17c0,.66,0,1.31,0,2,0,2.07.08,4.13,0,6.2,0,3.08,0,6.17.05,9.25a2.29,2.29,0,0,1,.11,1.16v1.32c.08,2.33.08,4.67.06,7h0q0,4.62,0,9.24a2.4,2.4,0,0,1,.1,1.16c0,.44,0,.88,0,1.32.07,2.34.07,4.68.06,7l.06,9.23c.12,1.47.11,2.95.1,4.42l.06,2.85c0,.6.06,1.21.08,1.81q9.23,0,18.44,0a1.35,1.35,0,0,0,1.3-.65c4.79-6.87,9.62-13.71,14.42-20.56q10-14.31,20-28.61l22.74-32.49c4.5-6.42,9-12.82,13.5-19.26a35.36,35.36,0,0,0,2.74-4.11h-1.22C686.26,29.7,678.68,29.72,671.09,29.68Z"/><path class="cls-1" d="M266.35,0l-6.83,0H243.4l-.49,0V0h-3.45v0l-.29,0H236v0l-.34,0h-4v0l-.35,0h-3.75v0l-.26,0h-3.61l-.44,0V0h-3.09c-.12,0-.24,0-.36.06V0h-3v0l-.11,0h-1.18a8.8,8.8,0,0,0-2,.47,8.26,8.26,0,0,0-3.24,1.27,8.49,8.49,0,0,0-3.43,3.05,11.1,11.1,0,0,0-2.35,4.09c-1,2.58-2,5.17-3,7.76-.18.49-.38,1-.53,1.48-.57,2-1.65,3.8-2.07,5.84a62.18,62.18,0,0,0-2.79,7.12c-.73,1.86-1.47,3.71-2.18,5.58-.6,1.58-1.17,3.17-1.76,4.75-.78,2-1.65,3.87-2.31,5.86a44.2,44.2,0,0,0-2,5.56,5.16,5.16,0,0,0-.86,1.91c-1,2.54-2,5.1-3,7.66-.42,1.11-.76,2.25-1.14,3.38-1,1.86-1.52,3.9-2.35,5.83s-1.48,4-2.2,6c-.16.06-.17.19-.22.33L175,86.29c-.37.95-.73,1.91-1.1,2.86l-.49-.31c0-.64-.57-1-.87-1.49,0-.46-.4-.73-.62-1.09s-.25-.83-.67-1.07c0-.56-.58-.89-.66-1.42l-.2-.1s0,0,0-.08c-.08-.4-.54-.58-.64-1a.87.87,0,0,0-.37-.67,4,4,0,0,0-.73-1.27c-.07-.2-.14-.39-.22-.59h0a2.78,2.78,0,0,1-.64-1.07h0l-.06,0-.08,0h0c-.25-.49-.49-1-.74-1.48h0c-.18-.1-.07-.41-.33-.45-.74-1.22-1.47-2.44-2.2-3.66-1.25-2.44-2.71-4.76-4.1-7.12l-4.48-7.76c-1.31-2.41-2.66-4.79-4.15-7.1a49.28,49.28,0,0,0-3.39-5.84,41.47,41.47,0,0,0-2.66-4.73l-3.24-5.6c-1-1.72-2-3.45-3-5.17s-1.89-3.5-3-5.17-1.92-3.51-3-5.19a21.86,21.86,0,0,0-1.72-3,9.15,9.15,0,0,0-1.29-2.17,7.67,7.67,0,0,0-1.09-1.93c-.07-.44-.42-.72-.64-1.08a5.52,5.52,0,0,0-.86-1.51,13.36,13.36,0,0,0-1.31-2.33l-1.06-1.75a16.74,16.74,0,0,0-1.73-3A9.63,9.63,0,0,0,122.08.3l0-.24-7.49,0-.49,0V0H94.07v0L93.8,0H90.62v0l-.36,0H86.09v0c-.12,0-.25,0-.37,0h-5v0l-.29,0H75.64c-.18,0-.37,0-.55,0V0H70.35c-.28.13-.65-.06-.88.25a8.57,8.57,0,0,0-3.23.93A11.11,11.11,0,0,0,61.53,5c-2,2.39-2.66,5.37-3.72,8.18-.4,1-.81,2-1.2,3Q55.29,19.56,54,22.91a7.09,7.09,0,0,1-.26.93q-2,5.25-4.06,10.5c-.28.75-.6,1.49-.85,2.25-.8,2.44-2,4.74-2.61,7.22a13.09,13.09,0,0,0-1.29,3.12,56.28,56.28,0,0,0-2.19,5.94,2.16,2.16,0,0,0-.36.51c-.65,2-1.43,3.88-2.19,5.81s-1.33,3.68-2,5.53a2.79,2.79,0,0,0-.28.42c-.83,2.17-1.73,4.31-2.46,6.51a57.63,57.63,0,0,0-2,5.57q-2.07,5.48-4.16,11L24.85,99.84q-1.87,4.95-3.77,9.88l-3.31,8.67q-1.8,4.73-3.59,9.44c-.26.57-.56,1.13-.79,1.72Q11.68,134,10,138.42c-.38,1.06-.75,2.12-1.15,3.17-.9,2.32-1.82,4.64-2.73,7-1.53,4.14-3,8.29-4.71,12.38-.45,1.1-.77,2.25-1.15,3.38a1,1,0,0,0-.24.76H7.62c.43,0,.85.05,1.28.05H50.48a9.51,9.51,0,0,0,4.12-.87,9.93,9.93,0,0,0,3.89-2.3h0a10.76,10.76,0,0,0,3.65-5c1.62-3.91,3.12-7.87,4.53-11.86q2.13-5.1,3.9-10.32c1.74-4,3.24-8.17,4.73-12.31,1-2.61,2-5.22,3-7.84.88-2.33,1.91-4.6,2.59-7,1-2.13,1.75-4.39,2.59-6.6,1-2.68,2.16-5.31,3-8.05,1.56-3.69,3-7.45,4.3-11.22l.09-.24q.93-2.3,1.84-4.59c.12-.33.16-.71.58-.82l.51.7a2,2,0,0,0,.64,1.08c.17.36.33.72.49,1.07L95.62,80l.84,1.29a2.21,2.21,0,0,0,.65,1.07l.24.66.63.85c.08.25.08.55.39.66a1.25,1.25,0,0,0,.48.84c.09.25.07.56.39.67a1.89,1.89,0,0,0,.64,1.08,3.45,3.45,0,0,0,.67,1.27l.65,1.06a2.39,2.39,0,0,0,.64,1.11l.9,1.72,2.37,4.09c1.07,1.8,2.13,3.6,3.2,5.39l3,5.19,4.11,7.09,3.07,5.39c1,1.48,1.67,3.12,2.75,4.53a47.79,47.79,0,0,0,3.24,5.59,56.23,56.23,0,0,0,3.65,6.29h0a7.16,7.16,0,0,0,1.15,2.12,34,34,0,0,0,2.76,4.51,21.5,21.5,0,0,0,1.95,3.59c1.19,2.06,2.3,4.17,3.64,6.13a15,15,0,0,0,1.73,3,7,7,0,0,0,1.08,1.95l.69,1.29L142,160l1,1.52a4.74,4.74,0,0,0,1.09,1.91,4.73,4.73,0,0,0,.93,1.57h0a24,24,0,0,0,4.72.1h0c.36,0,.71.05,1.07.05h45.69c1-.3,2.12-.18,3-.83a5.48,5.48,0,0,0,2.6-1.27,8.2,8.2,0,0,0,3-2.59,9.12,9.12,0,0,0,2.37-4.1c1.22-2.75,2.25-5.57,3.23-8.42,1.17-2.76,2.25-5.56,3.2-8.41,1.15-2.61,2.1-5.29,3.05-8,1.16-2.77,2.22-5.57,3.2-8.41,1.18-2.84,2.3-5.7,3.27-8.61h0a41,41,0,0,0,1.79-4.53c.86-2.29,1.87-4.52,2.53-6.88a13.67,13.67,0,0,0,1.25-3c.94-2.59,2.11-5.1,2.85-7.76a38,38,0,0,0,1.94-4.83c.82-2.12,1.58-4.26,2.37-6.39l3.6-9.28c.32-.83.66-1.65,1-2.48.84-2.34,1.87-4.6,2.57-7a4,4,0,0,0,.36-.64c1.59-4.17,3.16-8.35,4.74-12.53a4.37,4.37,0,0,1,.17-.62c2.09-5,3.95-10.2,5.89-15.31.23-.66.44-1.33.71-2,1.66-4,3.19-8.14,4.69-12.25L263,11.1Q265,5.81,267.1.49C267.11-.06,266.71,0,266.35,0ZM109,34.06l-.06.09,0-.12Zm58.8,60.2,0,0h0Zm.63,1.1a0,0,0,0,0,0,0h0Zm-50-85.66h0a2.53,2.53,0,0,0,.13.22l2.5,4.15c.13.21.07.53.35.66l.67,1.07.72,1.28.15.23a3,3,0,0,0,.55,1l.08.1a1.11,1.11,0,0,0,.38.67.14.14,0,0,0,0,.06,1.75,1.75,0,0,0,.47.78l.06.14a3.59,3.59,0,0,0,.52.94l.14.21.48.78.06.1a3.54,3.54,0,0,0,.65,1.17.36.36,0,0,0,.07.1l1,1.78.09.16a8.33,8.33,0,0,0,1,1.68.1.1,0,0,1,0,.05,27.42,27.42,0,0,0,1.93,3.37l0,.08h0c.88,1.66,1.8,3.31,2.84,4.89l.09.15a57.35,57.35,0,0,0,2.9,5,2.26,2.26,0,0,1,.16.26c1,1.92,2.07,3.78,3.24,5.6h0a46.52,46.52,0,0,0,2.68,4.64,1.4,1.4,0,0,0,.1.16h0a62.36,62.36,0,0,0,3.2,5.55h0q1.92,3.61,4.09,7.08l0,0q2.16,4,4.58,7.94h0q1.92,3.63,4.09,7.1l0,0c1.84,3.36,3.73,6.7,5.76,10a0,0,0,0,0,0,0v0h0c1.29,2.44,2.68,4.82,4.1,7.18l.1.16.59,1,.42.77c.05.08.09.16.13.24l.42.76.09.17-3,8c0,.06-.05.13-.08.2-1,2.29-1.83,4.64-2.66,7,0,0,0,.1-.05.14l-3,7.79-.2-.22-.48-.52h0a2.73,2.73,0,0,0-.9-1.47h0a6.86,6.86,0,0,0-1.66-2.58h0c0-.39-.25-.6-.45-.85a2.73,2.73,0,0,0-.65-1.07,2.55,2.55,0,0,0-.65-1.08,5.15,5.15,0,0,0-.88-1.5,2.68,2.68,0,0,0-.63-1.08L153.78,110a28.53,28.53,0,0,0-1.93-3.24,52.68,52.68,0,0,0-3.2-5.61c-.92-1.85-2-3.6-3.08-5.37l-3.24-5.61a52,52,0,0,0-3-5,2.23,2.23,0,0,0-.48-1.06c-.71-1.23-1.45-2.45-2.17-3.68-1.08-2-2.17-3.93-3.39-5.82-1-2.09-2.31-4-3.5-6-1-2.08-2.24-4-3.45-6-1.14-2.13-2.32-4.23-3.63-6.26a57.1,57.1,0,0,0-3-5.2c-.62-.62-.63-1.6-1.27-2.21a4.71,4.71,0,0,0-.87-1.5,4.28,4.28,0,0,0-.87-1.5c-.27-.37-.28-.9-.67-1.21a1.35,1.35,0,0,0-.41-.7l-.36-.65h0c-.33-.37-.32-.93-.74-1.25a4.93,4.93,0,0,0-.86-1.51h0a2.66,2.66,0,0,0-.64-1.1,2.56,2.56,0,0,0-.64-1.1c-.27-.33-.25-.83-.63-1.1l-.59-1a6,6,0,0,0-.92-1.57h0c-.25-.48-.5-1-.74-1.44h0c.19-.61.37-1.22.59-1.82q2.19-5.85,4.39-11.69v0Zm30.27,145.8h0l-.19-.25-.53-.7,0,0h0a13.24,13.24,0,0,0-2.3-3.65h0s0,0,0,0a3.57,3.57,0,0,0-.78-1.33l-.1-.11h0a3.2,3.2,0,0,0-.66-1.18.86.86,0,0,1-.07-.1h0a11.89,11.89,0,0,0-1.18-2l-.09-.14-1.45-2.48-.06-.1c-1.13-2.13-2.34-4.22-3.64-6.25a.54.54,0,0,0-.07-.13c-1-2-2.18-3.86-3.29-5.78l-.58-1a.56.56,0,0,1,0-.08L130.07,124a1.09,1.09,0,0,0-.08-.15,44.6,44.6,0,0,0-3.11-5.24.59.59,0,0,0,0-.08,26,26,0,0,0-2.54-4.4l0-.05a35.27,35.27,0,0,0-2.66-4.72c-.18-.29-.37-.57-.56-.85l0,0c-1.11-2.41-2.56-4.62-3.9-6.9a.75.75,0,0,1-.07-.12A57.33,57.33,0,0,0,114,96.21l0,0a46.3,46.3,0,0,0-3.2-5.65.18.18,0,0,0-.07,0l0-.07c-1.07-2.05-2.2-4.07-3.46-6v0a14.58,14.58,0,0,0-1.4-2.46l-.12,0,0-.08a4.76,4.76,0,0,0-.81-1.42l-.08,0,0-.06a2.64,2.64,0,0,0-.57-1l-.09,0,0-.06a3.32,3.32,0,0,0-.69-1.21h0c-.13-.22-.26-.44-.38-.67,0,0,0,0,0-.06a3.06,3.06,0,0,0-.58-1l-.07,0,0,0a1.51,1.51,0,0,0-.45-.78h0v0a1,1,0,0,0-.24-.5,1.56,1.56,0,0,0-.16-.2,1.41,1.41,0,0,0-.33-.63l-.14-.11h0c-.27-.24-.23-.65-.41-.94a.58.58,0,0,0-.22-.22,1.11,1.11,0,0,0-.38-.66h-.05l0,0c-.23-.29-.28-.68-.48-1a.87.87,0,0,0-.21-.22,1.34,1.34,0,0,0-.29-.57,1.42,1.42,0,0,0-.12-.13c-.22-.29-.26-.67-.49-1a.66.66,0,0,0-.14-.15,3.16,3.16,0,0,0-.57-1L97.73,68l-.87-1.62h0l1.32-3.82c0-.11.08-.21.13-.32.51-1.28,1-2.56,1.53-3.85,1.11-3,2.2-6,3.31-8.95.89-2.24,1.79-4.48,2.68-6.71a4.34,4.34,0,0,0,.79,1.28l.63,1.07a2.91,2.91,0,0,0,.63,1.09,5.12,5.12,0,0,0,.87,1.5,2.72,2.72,0,0,0,.63,1.09l.84,1.52.74,1.26.63,1.08c.13.22.26.44.4.66l.47.85.63,1.08.63,1.08.87,1.51a5.85,5.85,0,0,0,.88,1.51c.57,1,1.15,2,1.73,3,1.07,2,2.17,3.94,3.39,5.84,1.06,2,2.23,4,3.47,6,1,2,2.18,4,3.38,5.86,1.08,2.06,2.24,4.08,3.5,6h0a44.18,44.18,0,0,0,2.59,4.48,55.1,55.1,0,0,0,3,5.21h0a59.78,59.78,0,0,0,3.23,5.6,55.36,55.36,0,0,0,3,5.17c1,1.92,2.07,3.81,3.26,5.63,1.76,3.3,3.65,6.53,5.61,9.72h0l5.47,9.61a3.86,3.86,0,0,1,.36.7,1,1,0,0,1,.06.38l-2.79,7.31v0L151,149.6Q149.88,152.56,148.73,155.5Zm39.56,9.42h0Z"/></g></g></svg>