<svg xmlns="http://www.w3.org/2000/svg" viewBox="0 0 499.6 199.89"><defs><style>.cls-1{fill:#656d8c;fill-rule:evenodd;}</style></defs><g id="Layer_2" data-name="Layer 2"><g id="Layer_1-2" data-name="Layer 1"><g id="logo-black"><path class="cls-1" d="M229.9,139.88H219.4L173.11,83.27v56.61H159.94V59.94h10l46.81,56.61V59.94H229.9v79.93Zm89.87,0H249.82v-80H263.5v68.55h43.14V59.94h13.17v80Zm90,0h-70V59.94h15v68.55h55v11.38Zm89.87,0H429.64V128.49h57.19V105.64h-57.2V59.94h69.44V71.37H442.4V93.7h57.2v46.21Z"/><path class="cls-1" d="M120,26.23,60.31,0V66.06L76.78,88.84V24.37L103.49,36v98.44L74,116.47,16.51,36.54h-3A13.58,13.58,0,0,0,0,50.11V173.7l43.8,19v0l16.48,7.12V155.38L43.8,132.75v43L16.51,163.8V66.06l44.17,61.39L103.49,154h3A13.57,13.57,0,0,0,120,140.39V26.23Z"/></g></g></g></svg>