<svg xmlns="http://www.w3.org/2000/svg" viewBox="0 0 824.57 78.7"><defs><style>.cls-1{fill:#666e8d;}</style></defs><g id="Layer_2" data-name="Layer 2"><g id="streamlining"><path class="cls-1" d="M82.7,31.32c-5.84-.39-17.16,1.66-14-9.71,2.53-8.94,12-3.63,18.46-4.33,2.92-.31,3.59,2.65,5.09,4.54,3.72,4.73,9.48,3.59,13.74,2,4.84-1.79,2.69-7.13,2.16-10.89-.82-6-5-9.36-11-9.94A221.79,221.79,0,0,0,73.62,1.82C54.29,2,50.29,6.3,50.92,25.14c.45,13.14,5.09,18,18.71,19.53,5,.56,9.91,1.17,14.88,1.51,6,.42,8.95,2.9,8.79,9.21-.18,7-4.66,7.64-10.06,7.68-18.3.12-36.63,1.05-54.87.15C15.75,62.61,7,66.58,0,78.58c30.75,0,60.26.3,89.75-.13,15.38-.23,19.9-5.21,20.31-20.11.63-22.38-6-25.57-27.36-27"/><path class="cls-1" d="M454.58,2.79c-7.51-.63-15.56-2.28-18.9,8.41-2.95,9.43-6.09,19.12-12.74,29C418.42,28.57,414.31,18.87,410.89,9S399.38,3.18,393,2.74c-7.86-.55-5.34,5.75-5.39,9.59-.22,18.69.09,37.38-.2,56.08-.09,6.26.89,9.75,8.67,9.61,7.52-.12,7.7-4,7.59-9.36-.21-10.4-.07-20.8-.07-32.5,9.71,7.15,4.81,22.24,18.57,23,15.62.9,10.72-16.22,20.92-22.63,0,11.54.27,22-.09,32.52C442.8,75,444,78,451,78c6.78,0,8.47-2.67,8.37-8.75-.28-18.28.16-36.57-.29-54.85-.1-4,3.74-10.9-4.53-11.6"/><path class="cls-1" d="M811,27.25c1.58,9-2.92,10-9.64,9.49-7-.58-14.12-.14-21.19-.11-3.32,0-6.82-.47-6.76,4.64,0,4,.11,7.57,5.67,6.9,6.9-.83,6.89,3.3,7,8.25.17,6.69-4.06,6.71-8.94,6.93-14.67.67-16.48-.89-16.58-15.25,0-4.87-.36-9.78.09-14.61.5-5.3-3-13.28,4.11-15s15.87-5.6,22,4c3,4.67,9.55,3.3,13.77,1.47,4.67-2,2.62-7.1,1.62-10.9-1.75-6.68-6.72-9.71-13.45-10.93-36.53-6.64-46.24,1-46.25,36.87v2.44c0,35.5,2.24,37.62,39,37.19,17.34-.21,21-3.88,21.78-20.69.16-3.33-3.19-8.82,3.54-9.76,6.48-.9,2.08,6.58,5.56,8.35,15.13-16,17.67-11.18-1.41-29.31"/><path class="cls-1" d="M622.94,10.86c.11-6.36-2.12-8.47-8.61-8.45-6.15,0-9.14,1.27-8.72,8.05.54,8.86.13,17.78.13,26.68-.79.28-1.59.55-2.38.84-6.37-9.83-13.16-19.41-19-29.54-5-8.73-13-6.25-19.82-5.36-6.43.83-3.4,7.33-3.47,11.25-.32,18.25.19,36.52-.3,54.77-.19,7.26,2.71,8.87,9.43,8.89,6.91,0,8.25-3,8.06-8.9-.36-11.85-.1-23.72-.1-35.59,11,12.85,19.91,25.92,28.5,39.18,2.89,4.45,6.82,5.68,11.66,5,6.4-.91,4.37-6,4.4-9.6.16-19.07-.13-38.15.19-57.22"/><path class="cls-1" d="M721.06,2.45c-5.8-.16-8.29,1.38-8,7.5.48,9.12.13,18.28.13,27.41L710.9,38c-6.58-10.1-13.42-20-19.67-30.34-4.9-8.08-12.66-5.33-19-4.63-6.59.74-3.5,7.28-3.57,11.18-.33,18.31.06,36.62-.26,54.93-.11,6,1.31,8.84,8.18,8.86s9.61-2,9.28-9.07c-.54-11.81-.14-23.65-.14-35.48,11.15,13.12,20.12,26.29,28.77,39.64,3,4.62,7.24,5.28,11.9,4.49,5.36-.92,3.94-5.42,4-8.83.07-19.53-.21-39.06.16-58.59.14-7.24-3.79-7.55-9.41-7.71"/><path class="cls-1" d="M240.14,36.1c10.41-16.62,1.05-33.32-18.36-33.51-9.15-.08-18.32.22-27.46,0-6.94-.22-9.9,3-9.93,9.39,0,9.76,0,19.51,0,29.26h-.11c0,8.94.39,17.9-.11,26.81-.41,7.2,1.77,10,9.69,10.08,8.38,0,9.8-3.63,9.19-10.4a130.17,130.17,0,0,1,0-13.4c0-2.33-.17-4.42,3.2-5.49,11-3.47,18.7,1.53,19,12.76.1,3.65.18,7.31.15,11,0,4.49,3,5.59,6.59,5.2,3.84-.42,10.59,2.27,11-2.25.87-10.2,4.17-21.55-2.75-30.58-3.23-4.2-2.35-5.09,0-8.79m-28-.66c-7.92.47-9.24-2.27-9.45-9.41-.27-8.73,3.26-10.67,9.94-8.92,7.46-.86,11.78-.1,11.89,8.3.14,9.55-5.05,9.61-12.38,10"/><path class="cls-1" d="M299.15,62.09c-4.95.39-10,.12-14.95,0-5.56-.07-11.56,1.72-11.91-7.66-.4-10.18,6.53-7.57,11.48-7.17,7.56.61,10.18-1.5,9.76-9.26-.48-9-6.82-4.53-10.75-5.53s-10.26,2.84-10.43-6c-.17-8.46,4.39-9.12,10.95-8.7,4.56.29,9.21-.42,13.7.15,8.48,1.11,9.51-3.18,9.24-10-.31-7.65-5.82-5.43-9.84-5.54C254.49,1.32,254.49,1.35,255,39.73c0,7.71-.1,15.41,0,23.11.14,10,5.79,14.76,15.67,15,9.55.21,19.12,0,28.66.24,5.53.14,8.43-1.42,8.46-7.52s-2-9-8.67-8.46"/><path class="cls-1" d="M166.09,2.45c-6.66-.11-13.33,0-20,0-6.25,0-12.51-.3-18.74.1-5,.31-12-3-12.1,7.11-.13,9.34,5.57,8.61,11.35,8,7.49-.84,10.2,1.33,9.79,9.17-.73,13.79.22,27.66-.37,41.47-.33,7.6,2.32,9.73,9.89,9.83,8.22.11,9.67-3.35,9.44-10.29-.43-13,.54-26.07-.35-39-.63-9.19,2.18-12.67,11.55-11.1,6.62,1.11,9.67-1.13,9.61-8.49,0-8.16-5.34-6.63-10.08-6.71"/><path class="cls-1" d="M512.33,62.37c-4.16.2-8.36-.34-12.48.11-7.49.81-10.41-1.77-10.12-9.44.53-13.8-.13-27.64.25-41.43.19-6.7-1.82-9.29-9.12-9.29s-9.48,2.6-9.12,9.29c.41,7.69.09,15.43.09,23.15,0,44.61,0,44.61,38.77,43.3a10.43,10.43,0,0,1,1.25,0c6.16.55,9-1.56,8.93-8.23-.12-6.16-2.94-7.73-8.45-7.46"/><path class="cls-1" d="M547.74,40.65c0-10.12-.41-20.26.12-30.37.44-8.29-4.75-7.61-10.4-7.86-6.22-.27-9,1.47-8.84,8.13.36,19.44.39,38.88,0,58.32-.15,6.86,2.06,9.19,9.13,9.2s10.7-1.61,10.15-9.48c-.65-9.28-.15-18.62-.15-27.94"/><path class="cls-1" d="M645.7,2.48c-5.25.07-10-.31-9.67,7.24.42,10.11.1,20.25.1,30.37s.34,20.26-.11,30.37c-.33,7.41,4.16,7.51,9.54,7.45s9.85.27,9.73-7.28q-.51-30.36,0-60.74c.12-7.33-4.14-7.49-9.59-7.41"/><path class="cls-1" d="M343.63,19.44c.15-3,4.67-2.57,5,.23,1.61,12.46,11.86,10.55,20.11,13.15-2.49-28.3-3.39-30-15.68-30.26-24.44-.51-24.44-.51-28.64,29.47,6.88-6.78,18.52.58,19.18-12.59"/><path class="cls-1" d="M364.37,52.43c-2.76,1.17-8.42-2.94-8.49,4.68-.11,13.84,4.3,21,13.8,20.77,4.22-.1,11,1.23,8.54-6.11S381,50.92,364.37,52.43"/><path class="cls-1" d="M330.26,52.21C315,49.07,317.82,61.16,315,69s.61,9.49,6,9c5.57-.2,10.65.61,11.31-4.92.79-6.68,4.44-13,2.5-19.93-.18-.66-3-.59-4.58-.92"/><path class="cls-1" d="M326.2,36.74c-2.88.83-6.1,2.12-5.95,5.3.18,4,4.17,3.23,6.81,3.25,15.53.13,31.08.07,49.63.07-17.66-9.72-33.3-13.52-50.49-8.62"/></g></g></svg>